<?xml version="1.0" standalone="no"?>
<!DOCTYPE svg PUBLIC "-//W3C//DTD SVG 20010904//EN"
 "http://www.w3.org/TR/2001/REC-SVG-20010904/DTD/svg10.dtd">
<svg version="1.0" xmlns="http://www.w3.org/2000/svg"
 width="912.000000pt" height="912.000000pt" viewBox="0 0 912.000000 912.000000"
 preserveAspectRatio="xMidYMid meet">
<metadata>
Created by potrace 1.14, written by Peter Selinger 2001-2017
</metadata>
<g transform="translate(0.000000,912.000000) scale(0.100000,-0.100000)"
fill="#000000" stroke="none">
<path d="M4359 9116 c-2 -2 -38 -7 -79 -10 -128 -11 -192 -19 -210 -26 -3 -1
-8 -2 -12 -1 -4 0 -51 -8 -104 -19 -53 -11 -106 -22 -118 -24 -67 -14 -331
-92 -351 -104 -5 -4 -14 -7 -20 -8 -47 -10 -417 -181 -423 -196 -2 -4 -8 -8
-14 -8 -20 0 -224 -128 -348 -219 -203 -147 -440 -375 -607 -581 -63 -78 -93
-119 -93 -127 0 -5 -9 -15 -20 -23 -11 -8 -20 -18 -20 -22 0 -4 -15 -29 -34
-55 -67 -96 -249 -424 -261 -473 -1 -3 -7 -18 -13 -33 -7 -16 -21 -52 -33 -80
-11 -29 -25 -60 -30 -69 -5 -10 -9 -22 -9 -27 0 -5 -5 -22 -12 -38 -6 -15 -12
-30 -13 -33 -1 -3 -7 -25 -15 -50 -7 -25 -15 -49 -17 -55 -12 -36 -72 -280
-77 -311 -9 -59 -17 -106 -22 -134 -19 -101 -28 -254 -29 -470 0 -256 6 -332
45 -550 11 -63 23 -126 25 -140 6 -35 83 -311 94 -335 5 -11 14 -33 20 -50 6
-16 16 -43 22 -60 7 -16 13 -32 14 -35 6 -19 21 -54 46 -109 16 -35 29 -69 29
-77 0 -8 3 -14 8 -14 8 0 32 -49 32 -67 0 -7 4 -13 9 -13 5 0 11 -8 14 -17 3
-10 24 -49 47 -88 22 -38 43 -78 46 -87 4 -10 10 -18 14 -18 4 0 10 -8 13 -17
6 -25 140 -213 233 -330 71 -88 304 -330 380 -393 127 -107 278 -220 293 -220
5 0 11 -4 13 -8 3 -9 90 -67 148 -100 19 -11 64 -36 100 -57 71 -40 175 -90
325 -156 88 -38 288 -29 391 18 53 24 143 86 175 120 38 41 102 133 92 133 -4
0 -3 4 4 8 23 15 55 136 59 222 7 184 -65 338 -212 458 -16 13 -85 51 -154 84
-69 33 -128 65 -132 72 -4 6 -8 8 -8 4 0 -4 -30 10 -66 32 -216 133 -412 303
-556 485 -66 84 -168 231 -168 244 0 5 -7 14 -15 21 -9 7 -13 15 -11 18 3 3
-3 17 -13 31 -37 52 -146 308 -166 391 -1 3 -5 17 -9 31 -4 14 -9 32 -10 40
-2 8 -6 21 -9 29 -26 69 -60 343 -60 495 0 84 12 274 18 284 1 3 6 30 10 60 4
30 9 63 11 75 3 12 7 32 10 46 2 14 7 32 10 40 3 8 8 25 10 36 9 46 73 232
104 299 41 92 74 159 80 165 3 3 16 25 29 50 25 47 111 177 140 213 111 137
258 291 332 348 18 13 37 29 43 34 32 30 248 172 292 192 22 10 41 21 44 24 3
3 43 23 90 43 47 21 99 44 115 51 28 12 212 69 259 80 47 11 123 26 155 31 18
3 43 8 55 10 103 21 452 21 562 0 10 -2 39 -7 64 -10 25 -3 60 -10 78 -15 18
-5 35 -10 37 -10 14 1 77 -15 140 -34 39 -11 72 -21 75 -22 3 -1 19 -7 35 -14
17 -7 37 -14 46 -16 9 -2 25 -8 35 -13 34 -18 114 -52 123 -52 5 0 14 -7 21
-15 7 -8 16 -13 20 -10 5 3 10 2 12 -2 1 -5 28 -21 58 -37 52 -27 189 -113
200 -126 3 -3 23 -18 45 -34 115 -84 258 -224 383 -376 199 -242 381 -663 416
-962 2 -21 7 -41 9 -45 7 -10 17 -212 17 -308 0 -94 -15 -276 -25 -315 -2 -8
-7 -28 -10 -45 -21 -125 -71 -294 -121 -415 -50 -119 -176 -348 -219 -397 -5
-6 -28 -37 -49 -67 -22 -31 -43 -56 -48 -56 -4 0 -8 -4 -8 -10 0 -5 -8 -18
-17 -28 -10 -10 -41 -43 -69 -73 -90 -95 -151 -148 -258 -224 -16 -11 -33 -25
-40 -30 -6 -6 -72 -55 -146 -110 -74 -54 -140 -104 -147 -110 -34 -29 -43 -35
-48 -35 -2 0 -15 -8 -27 -19 -41 -34 -399 -301 -404 -301 -3 0 -19 -13 -37
-30 -18 -16 -35 -30 -38 -30 -4 0 -83 -57 -134 -98 -5 -4 -46 -34 -90 -67 -44
-32 -81 -62 -83 -67 -2 -4 -9 -8 -14 -8 -6 0 -18 -7 -27 -15 -14 -13 -50 -40
-186 -140 -11 -8 -29 -21 -40 -30 -11 -9 -63 -48 -115 -86 -52 -39 -106 -79
-120 -90 -14 -10 -52 -40 -85 -65 -33 -25 -68 -51 -77 -59 -10 -8 -18 -13 -18
-10 0 3 -9 -3 -19 -12 -25 -23 -38 -33 -81 -63 -19 -13 -37 -27 -40 -30 -3 -3
-27 -22 -55 -41 -27 -18 -52 -37 -55 -40 -9 -9 -444 -334 -454 -338 -6 -2 -20
-15 -33 -27 -13 -13 -27 -24 -32 -24 -8 0 -82 -71 -111 -107 -42 -50 -92 -157
-105 -220 -7 -33 -17 -114 -17 -128 1 -20 12 -101 18 -129 28 -131 155 -286
284 -347 90 -44 102 -48 130 -52 14 -1 30 -5 35 -8 6 -3 48 -5 95 -4 135 3
213 31 340 123 41 30 94 68 118 85 23 17 42 34 42 39 0 4 5 8 10 8 8 0 282
199 365 265 11 9 32 24 48 33 15 9 27 20 27 24 0 4 4 8 10 8 5 0 18 8 29 17
10 10 74 59 141 108 169 124 343 252 355 262 48 39 94 73 99 73 3 0 30 19 60
43 29 23 66 51 81 62 16 11 61 45 101 75 40 30 134 100 209 155 75 55 149 110
163 122 15 13 30 23 34 23 4 0 13 6 20 13 7 7 60 48 118 91 58 43 115 85 127
94 12 9 31 24 43 32 49 34 522 390 534 402 7 7 42 38 77 68 117 102 329 322
377 392 9 13 24 30 34 39 10 9 18 21 18 28 0 6 4 11 8 11 4 0 16 13 25 30 10
16 23 35 30 42 16 16 148 224 167 261 7 15 17 27 22 27 4 0 8 7 8 16 0 9 8 28
18 42 28 40 109 214 152 322 29 75 81 220 86 239 2 9 10 41 19 71 9 30 18 62
20 70 2 8 4 15 5 15 1 0 3 7 5 15 1 8 10 49 19 90 20 89 22 103 32 167 3 26 9
57 11 68 5 25 10 66 20 170 10 105 10 491 0 580 -4 39 -10 88 -12 110 -6 55
-12 88 -30 180 -8 44 -17 89 -19 100 -10 52 -39 171 -44 180 -4 6 -8 18 -9 28
-6 37 -94 285 -132 372 -42 94 -136 278 -185 360 -68 115 -165 258 -177 263
-5 2 -9 10 -9 17 0 7 -3 15 -7 17 -5 2 -25 25 -46 53 -70 92 -131 159 -257
285 -135 135 -156 155 -270 245 -41 33 -77 62 -80 65 -3 3 -12 10 -21 15 -8 6
-67 45 -131 87 -123 82 -137 90 -279 166 -93 50 -282 136 -321 147 -5 2 -10 4
-13 5 -3 1 -8 3 -12 5 -5 1 -15 5 -23 8 -62 27 -318 103 -415 123 -11 2 -31 6
-45 9 -28 6 -45 9 -110 20 -63 11 -67 12 -135 19 -33 4 -71 9 -85 12 -28 6
-515 15 -521 10z"/>
<path d="M5492 2285 c-93 -20 -155 -52 -282 -146 -63 -46 -122 -89 -130 -96
-8 -7 -130 -98 -270 -202 -140 -105 -260 -194 -266 -199 -6 -5 -57 -44 -115
-87 -57 -42 -105 -81 -107 -86 -2 -5 -8 -9 -14 -9 -8 0 -45 -26 -103 -73 -5
-4 -89 -66 -185 -137 -96 -72 -179 -134 -185 -138 -5 -4 -50 -39 -100 -76 -96
-74 -155 -129 -155 -146 0 -5 -4 -10 -9 -10 -13 0 -88 -149 -95 -190 -3 -19
-8 -45 -11 -58 -15 -80 -5 -184 27 -272 44 -118 173 -257 278 -300 14 -6 34
-15 45 -20 70 -31 218 -44 305 -26 51 10 121 37 152 58 14 10 28 18 31 18 7 0
426 314 448 335 9 8 21 15 27 15 7 0 12 3 12 8 0 4 16 18 35 31 19 13 44 32
56 42 12 11 25 19 28 19 3 0 18 10 33 23 60 50 68 57 73 57 3 0 15 9 27 19 20
17 562 422 627 469 13 9 28 22 35 27 6 6 45 35 86 65 41 29 83 62 93 72 10 10
22 18 27 18 22 0 149 143 176 197 16 32 29 60 30 63 0 3 4 12 7 20 15 32 33
157 30 205 -16 281 -236 502 -516 519 -50 3 -106 -1 -145 -9z"/>
</g>
</svg>
