<svg width="157" height="157" viewBox="0 0 157 157" fill="none" xmlns="http://www.w3.org/2000/svg">
<path d="M69.1173 95.563L81.4212 95.5335C83.1704 91.6069 84.5198 87.5159 85.4491 83.3224C86.8949 77.1091 86.7288 70.6368 84.9667 64.5212C83.2045 58.4055 79.9049 52.8499 75.3817 48.3827C69.7906 53.9739 61.5609 65.3953 65.0454 83.2687C65.9876 87.4946 67.3517 91.6133 69.1173 95.563Z" stroke="white" stroke-width="6" stroke-linecap="round" stroke-linejoin="round"/>
<path d="M81.4212 95.5337L91.65 105.763C91.65 105.763 96.7531 98.4089 95.7807 93.4486C94.6865 87.9145 85.5519 83.2198 85.5519 83.2198" stroke="white" stroke-width="6" stroke-linecap="round" stroke-linejoin="round"/>
<path d="M69.1175 95.5636L58.8398 105.842C58.8398 105.842 53.7717 98.5123 54.7679 93.5473C55.8884 88.0078 65.0456 83.2694 65.0456 83.2694" stroke="white" stroke-width="6" stroke-linecap="round" stroke-linejoin="round"/>
<path d="M53.5 30H48C45.0826 30 42.2847 31.1589 40.2218 33.2218C38.1589 35.2847 37 38.0826 37 41V68.5C37 71.4174 35.8411 74.2153 33.7782 76.2782C31.7153 78.3411 28.9174 79.5 26 79.5C28.9174 79.5 31.7153 80.6589 33.7782 82.7218C35.8411 84.7847 37 87.5826 37 90.5V118C37 124.05 41.95 129 48 129H53.5" stroke="white" stroke-width="7" stroke-linecap="round" stroke-linejoin="round"/>
<path d="M97.5 129H103C105.917 129 108.715 127.841 110.778 125.778C112.841 123.715 114 120.917 114 118V90.5C114 84.45 118.95 79.5 125 79.5C122.083 79.5 119.285 78.3411 117.222 76.2782C115.159 74.2153 114 71.4174 114 68.5V41C114 38.0826 112.841 35.2847 110.778 33.2218C108.715 31.1589 105.917 30 103 30H97.5" stroke="white" stroke-width="7" stroke-linecap="round" stroke-linejoin="round"/>
<rect x="2.5" y="2.5" width="152" height="152" rx="17.5" stroke="#D9D9D9" stroke-width="5"/>
</svg>
