<svg width="157" height="157" viewBox="0 0 157 157" fill="none" xmlns="http://www.w3.org/2000/svg">
<path d="M88.4273 37.47L93.4836 42.5022C95.8105 41.6095 98.041 40.4855 100.141 39.1473C103.281 37.1927 105.867 34.4712 107.651 31.2415C109.436 28.0119 110.361 24.3814 110.338 20.6956C105.754 20.6957 97.6973 22.0042 91.7982 30.7603C90.452 32.8791 89.3227 35.1269 88.4273 37.47Z" stroke="white" stroke-width="3" stroke-linecap="round" stroke-linejoin="round"/>
<path d="M93.4837 42.5022L93.4837 50.8893C93.4837 50.8893 98.5906 49.9666 100.225 47.5343C102.046 44.8169 100.225 39.1473 100.225 39.1473" stroke="white" stroke-width="3" stroke-linecap="round" stroke-linejoin="round"/>
<path d="M88.4273 37.47L80 37.4701C80 37.4701 80.927 32.3876 83.3709 30.7604C86.1014 28.9488 91.7982 30.7603 91.7982 30.7603" stroke="white" stroke-width="3" stroke-linecap="round" stroke-linejoin="round"/>
<path d="M88.4273 80.7745L93.4836 85.8066C95.8105 84.914 98.041 83.79 100.141 82.4517C103.281 80.4972 105.867 77.7756 107.651 74.546C109.436 71.3163 110.361 67.6859 110.338 64C105.754 64.0001 97.6973 65.3086 91.7982 74.0648C90.452 76.1835 89.3227 78.4314 88.4273 80.7745Z" stroke="white" stroke-width="3" stroke-linecap="round" stroke-linejoin="round"/>
<path d="M93.4837 85.8066L93.4837 94.1937C93.4837 94.1937 98.5906 93.2711 100.225 90.8388C102.046 88.1214 100.225 82.4517 100.225 82.4517" stroke="white" stroke-width="3" stroke-linecap="round" stroke-linejoin="round"/>
<path d="M88.4273 80.7745L80 80.7746C80 80.7746 80.927 75.692 83.3709 74.0649C86.1014 72.2532 91.7982 74.0648 91.7982 74.0648" stroke="white" stroke-width="3" stroke-linecap="round" stroke-linejoin="round"/>
<path d="M88.4273 124.079L93.4836 129.111C95.8105 128.218 98.041 127.094 100.141 125.756C103.281 123.802 105.867 121.08 107.651 117.85C109.436 114.621 110.361 110.99 110.338 107.304C105.754 107.305 97.6973 108.613 91.7982 117.369C90.452 119.488 89.3227 121.736 88.4273 124.079Z" stroke="white" stroke-width="3" stroke-linecap="round" stroke-linejoin="round"/>
<path d="M93.4837 129.111L93.4837 137.498C93.4837 137.498 98.5906 136.576 100.225 134.143C102.046 131.426 100.225 125.756 100.225 125.756" stroke="white" stroke-width="3" stroke-linecap="round" stroke-linejoin="round"/>
<path d="M88.4273 124.079L80 124.079C80 124.079 80.927 118.996 83.3709 117.369C86.1014 115.558 91.7982 117.369 91.7982 117.369" stroke="white" stroke-width="3" stroke-linecap="round" stroke-linejoin="round"/>
<rect x="2.5" y="2.5" width="152" height="152" rx="17.5" stroke="#D9D9D9" stroke-width="5"/>
<path d="M53.0413 25.4545V48H48.2746V29.979H48.1425L42.9795 33.2156V28.9883L48.5608 25.4545H53.0413ZM59.9739 48.2862C59.2473 48.2862 58.6235 48.0294 58.1025 47.5156C57.5887 46.9946 57.3319 46.3707 57.3319 45.6442C57.3319 44.925 57.5887 44.3085 58.1025 43.7947C58.6235 43.281 59.2473 43.0241 59.9739 43.0241C60.6784 43.0241 61.2949 43.281 61.8233 43.7947C62.3517 44.3085 62.6159 44.925 62.6159 45.6442C62.6159 46.1286 62.4912 46.5726 62.2417 46.9762C61.9995 47.3725 61.6802 47.6918 61.2839 47.9339C60.8876 48.1688 60.4509 48.2862 59.9739 48.2862Z" fill="white"/>
<path d="M40.9475 90V86.5653L48.9727 79.1346C49.6553 78.4741 50.2277 77.8796 50.6901 77.3512C51.1598 76.8228 51.5157 76.3054 51.7579 75.799C52.0001 75.2853 52.1212 74.7312 52.1212 74.1367C52.1212 73.4762 51.9707 72.9074 51.6698 72.4304C51.3689 71.946 50.9579 71.5754 50.4369 71.3185C49.9158 71.0543 49.325 70.9222 48.6645 70.9222C47.9746 70.9222 47.3728 71.0617 46.8591 71.3406C46.3454 71.6194 45.9491 72.0194 45.6702 72.5405C45.3913 73.0616 45.2519 73.6817 45.2519 74.4009H40.7274C40.7274 72.9258 41.0613 71.6451 41.7291 70.5589C42.397 69.4728 43.3327 68.6325 44.5363 68.038C45.7399 67.4435 47.127 67.1463 48.6975 67.1463C50.3121 67.1463 51.7175 67.4325 52.9138 68.005C54.1174 68.5701 55.0531 69.3553 55.721 70.3608C56.3888 71.3662 56.7227 72.5185 56.7227 73.8175C56.7227 74.6688 56.5539 75.5091 56.2164 76.3384C55.8861 77.1677 55.2953 78.0888 54.444 79.1016C53.5927 80.107 52.3927 81.3143 50.8442 82.7234L47.5526 85.9489V86.103H57.02V90H40.9475ZM63.2591 90.2862C62.5325 90.2862 61.9087 90.0294 61.3876 89.5156C60.8739 88.9946 60.617 88.3707 60.617 87.6442C60.617 86.925 60.8739 86.3085 61.3876 85.7947C61.9087 85.281 62.5325 85.0241 63.2591 85.0241C63.9636 85.0241 64.5801 85.281 65.1085 85.7947C65.6369 86.3085 65.9011 86.925 65.9011 87.6442C65.9011 88.1286 65.7763 88.5726 65.5268 88.9762C65.2846 89.3725 64.9654 89.6918 64.5691 89.9339C64.1728 90.1688 63.7361 90.2862 63.2591 90.2862Z" fill="white"/>
<path d="M48.6448 135.308C47.0008 135.308 45.5367 135.026 44.2524 134.461C42.9754 133.888 41.9662 133.103 41.225 132.105C40.4911 131.099 40.1131 129.94 40.0911 128.626H44.8908C44.9202 129.176 45.1 129.661 45.4303 130.079C45.7679 130.49 46.2155 130.809 46.7733 131.037C47.3311 131.264 47.9586 131.378 48.6558 131.378C49.3823 131.378 50.0245 131.25 50.5823 130.993C51.14 130.736 51.5767 130.38 51.8923 129.925C52.2078 129.47 52.3656 128.945 52.3656 128.351C52.3656 127.749 52.1968 127.217 51.8592 126.755C51.529 126.285 51.052 125.918 50.4281 125.654C49.8117 125.39 49.0778 125.257 48.2264 125.257H46.1238V121.757H48.2264C48.9457 121.757 49.5805 121.632 50.1309 121.382C50.6887 121.133 51.1217 120.788 51.4299 120.348C51.7381 119.9 51.8923 119.379 51.8923 118.784C51.8923 118.219 51.7565 117.724 51.485 117.298C51.2207 116.865 50.8465 116.528 50.3621 116.286C49.885 116.043 49.3273 115.922 48.6888 115.922C48.043 115.922 47.4522 116.04 46.9164 116.275C46.3807 116.502 45.9513 116.829 45.6284 117.254C45.3055 117.68 45.133 118.179 45.111 118.751H40.5425C40.5645 117.452 40.9351 116.308 41.6543 115.317C42.3736 114.326 43.3423 113.552 44.5606 112.994C45.7862 112.429 47.1696 112.146 48.7108 112.146C50.2667 112.146 51.6281 112.429 52.795 112.994C53.9619 113.559 54.8682 114.322 55.5141 115.284C56.1672 116.238 56.4902 117.309 56.4828 118.498C56.4902 119.761 56.0975 120.814 55.3049 121.658C54.5196 122.502 53.4958 123.037 52.2335 123.265V123.441C53.8921 123.654 55.1545 124.23 56.0205 125.169C56.8938 126.101 57.3268 127.268 57.3195 128.67C57.3268 129.954 56.9562 131.096 56.2076 132.094C55.4664 133.092 54.4426 133.877 53.1362 134.45C51.8299 135.022 50.3327 135.308 48.6448 135.308ZM62.8953 135.286C62.1687 135.286 61.5449 135.029 61.0238 134.516C60.5101 133.995 60.2532 133.371 60.2532 132.644C60.2532 131.925 60.5101 131.308 61.0238 130.795C61.5449 130.281 62.1687 130.024 62.8953 130.024C63.5998 130.024 64.2163 130.281 64.7447 130.795C65.2731 131.308 65.5373 131.925 65.5373 132.644C65.5373 133.129 65.4126 133.573 65.163 133.976C64.9209 134.373 64.6016 134.692 64.2053 134.934C63.809 135.169 63.3723 135.286 62.8953 135.286Z" fill="white"/>
</svg>
